<svg xmlns="http://www.w3.org/2000/svg" xmlns:xlink="http://www.w3.org/1999/xlink" width="430.9375205039978" height="89.54167175292969" style="width:430.9375205039978px;height:89.54167175292969px;font-family:Asana-Math, Asana;background:#FFF;"><g><g><g><g transform="matrix(1,0,0,1,154.4375,18.333328247070312)"><path transform="matrix(0.017,0,0,-0.017,0,0)" d="M108 471C108 386 146 339 230 319L325 296C379 283 406 248 406 191C406 96 335 30 232 30C178 30 140 42 96 73L96 172L66 172C60 117 53 72 42 20C91 -5 144 -18 197 -18C352 -18 485 99 485 234C485 313 442 355 341 377L276 391C210 405 180 442 180 508C180 595 247 658 339 658C388 658 421 645 451 613L451 537L481 537C485 591 492 629 506 672C461 696 421 706 374 706C250 706 108 614 108 471ZM548 -180C547 -187 547 -193 547 -198C547 -241 584 -276 629 -276C735 -276 845 -152 904 33L1045 473L1034 482C1005 471 982 465 960 463L925 331C913 284 878 211 845 162C810 111 761 67 739 67C727 67 718 90 719 115L735 322C737 353 739 391 739 419C739 464 732 482 715 482C702 482 688 475 640 442L558 386L569 368L619 398C624 401 635 410 644 410C658 410 666 391 666 358C666 357 666 351 665 343L648 100L647 60C647 18 665 -11 690 -11C727 -11 811 74 886 187L837 16C786 -161 736 -234 666 -234C631 -234 604 -207 604 -172C604 -167 605 -159 606 -150L596 -146ZM1085 148C1080 97 1074 62 1063 16C1101 -2 1135 -11 1170 -11C1219 -11 1265 7 1316 47C1367 87 1388 124 1388 174C1388 228 1356 257 1282 271L1239 279C1179 290 1160 307 1160 348C1160 401 1205 442 1262 442C1303 442 1341 424 1357 397L1357 342L1380 342C1384 377 1388 404 1399 455C1360 474 1332 482 1299 482C1247 482 1186 452 1138 404C1112 377 1101 352 1101 316C1101 260 1132 228 1198 215L1261 203C1305 195 1321 177 1321 138C1321 73 1275 29 1204 29C1169 29 1138 40 1110 64L1110 148ZM1567 390L1511 107C1510 99 1498 61 1498 31C1498 6 1509 -9 1528 -9C1563 -9 1598 11 1676 74L1707 99L1697 117L1652 86C1623 66 1603 56 1592 56C1583 56 1578 64 1578 76C1578 102 1592 183 1621 328L1634 390L1741 390L1752 440C1714 436 1680 434 1642 434C1658 528 1669 577 1687 631L1676 646C1656 634 1629 622 1598 610L1573 440C1529 419 1503 408 1485 403L1483 390ZM2102 111L2078 94C2025 56 1977 36 1941 36C1894 36 1865 73 1865 133C1865 158 1868 185 1873 214C1890 218 1999 248 2024 259C2109 296 2148 342 2148 404C2148 451 2114 482 2064 482C1996 496 1886 423 1849 349C1819 299 1789 180 1789 113C1789 35 1833 -11 1905 -11C1962 -11 2018 17 2110 92ZM1887 274C1904 343 1924 386 1953 412C1971 428 2002 440 2026 440C2055 440 2074 420 2074 388C2074 344 2039 297 1987 272C1959 258 1923 247 1878 237ZM2892 103L2866 86C2837 67 2815 56 2805 56C2798 56 2792 65 2792 76C2792 86 2794 95 2799 116L2874 413C2878 430 2881 446 2881 454C2881 471 2871 482 2855 482C2826 482 2788 464 2727 421C2664 376 2629 341 2580 272L2610 409C2614 429 2617 444 2617 451C2617 470 2607 482 2591 482C2561 482 2515 460 2460 418C2416 384 2396 363 2331 275L2364 408C2368 424 2370 439 2370 451C2370 470 2361 482 2347 482C2326 482 2288 461 2214 408L2186 388L2193 368C2230 391 2265 414 2272 414C2283 414 2290 404 2290 389C2290 338 2249 145 2208 2L2211 -9L2279 6L2301 108C2325 219 2352 278 2407 338C2449 384 2494 414 2522 414C2529 414 2533 406 2533 393C2533 358 2511 244 2470 69L2454 2L2459 -9L2528 6L2549 113C2565 194 2599 269 2643 318C2698 379 2748 414 2780 414C2788 414 2793 405 2793 389C2793 365 2790 351 2768 264C2728 105 2712 84 2712 31C2712 6 2723 -9 2742 -9C2768 -9 2804 12 2902 85ZM3409 334L3526 334L3658 330L3677 375L3673 382C3592 378 3532 376 3454 376L3417 376L3464 646C3496 647 3579 650 3601 650C3663 650 3704 641 3705 626L3713 537L3737 537C3740 601 3747 651 3758 689C3737 691 3707 692 3689 692C3686 692 3675 692 3651 691L3531 690C3522 689 3348 691 3338 691L3293 692L3290 664L3344 662C3368 661 3379 653 3379 635C3379 621 3375 589 3370 559L3283 55C3279 37 3267 30 3223 23L3218 -3L3259 -2C3290 -1 3352 0 3372 0L3597 -3C3611 -3 3636 -2 3669 -1L3702 0L3706 36C3708 56 3713 86 3722 135L3727 161L3700 161L3684 101C3674 65 3665 53 3643 48C3623 44 3550 39 3496 39C3455 39 3428 40 3359 46ZM3964 420C3985 420 4001 421 4027 424C3916 304 3874 221 3874 121C3874 44 3920 -11 3984 -11C4122 -11 4275 236 4275 384C4275 441 4249 482 4213 482C4200 482 4188 478 4180 470L4130 423L4141 404C4150 410 4159 413 4168 413C4195 413 4211 390 4211 350C4211 202 4114 39 4026 39C3977 39 3946 81 3946 146C3946 251 3985 342 4083 464L4073 482C4053 473 4040 470 4012 470C3984 470 3942 472 3913 475L3901 476C3895 477 3890 477 3889 477C3877 477 3868 475 3857 470C3843 443 3832 407 3819 352L3841 352L3858 394C3865 411 3885 422 3909 422C3942 422 3926 420 3964 420ZM4314 152C4314 46 4359 -11 4442 -11C4497 -11 4557 15 4602 57C4664 116 4708 230 4708 331C4708 425 4658 482 4575 482C4471 482 4314 382 4314 152ZM4538 444C4599 444 4632 399 4632 315C4632 219 4601 113 4557 60C4539 39 4513 27 4482 27C4424 27 4390 72 4390 151C4390 264 4429 387 4478 427C4491 438 4514 444 4538 444ZM4991 722L4979 733C4927 707 4891 698 4819 691L4815 670L4863 670C4887 670 4897 663 4897 648C4897 645 4897 640 4894 622C4883 567 4810 182 4795 132C4782 82 4776 52 4776 31C4776 6 4787 -9 4806 -9C4832 -9 4868 12 4966 85L4956 103L4930 86C4901 67 4879 56 4869 56C4862 56 4856 66 4856 76C4856 82 4857 89 4860 104ZM5509 473L5502 482L5434 465L5424 414C5409 336 5384 268 5353 221C5294 130 5216 59 5176 59C5168 59 5163 68 5163 85C5163 99 5165 112 5170 137L5227 408C5230 424 5232 438 5232 451C5232 470 5223 482 5209 482C5189 482 5151 461 5077 408L5049 388L5056 368L5088 389C5116 407 5127 412 5136 412C5145 412 5153 403 5153 392C5153 388 5152 378 5151 374L5088 77C5086 68 5084 44 5084 30C5084 7 5099 -11 5119 -11C5182 -11 5303 101 5387 239L5350 97C5343 73 5339 46 5339 31C5339 6 5350 -9 5369 -9C5395 -9 5431 12 5529 85L5519 103L5493 86C5469 70 5443 59 5432 59C5424 59 5419 66 5419 76C5419 112 5494 416 5509 473ZM5697 390L5641 107C5640 99 5628 61 5628 31C5628 6 5639 -9 5658 -9C5693 -9 5728 11 5806 74L5837 99L5827 117L5782 86C5753 66 5733 56 5722 56C5713 56 5708 64 5708 76C5708 102 5722 183 5751 328L5764 390L5871 390L5882 440C5844 436 5810 434 5772 434C5788 528 5799 577 5817 631L5806 646C5786 634 5759 622 5728 610L5703 440C5659 419 5633 408 5615 403L5613 390ZM5938 388L5945 368L5977 389C6014 412 6017 414 6024 414C6034 414 6042 404 6042 391C6042 384 6038 361 6034 347L5968 107C5960 76 5955 49 5955 30C5955 6 5966 -9 5985 -9C6011 -9 6047 12 6145 85L6135 103L6109 86C6080 67 6057 56 6048 56C6041 56 6035 66 6035 76C6035 86 6037 95 6042 116L6119 420C6123 437 6125 448 6125 456C6125 473 6116 482 6100 482C6078 482 6041 461 5966 408ZM6132 712C6103 712 6074 679 6074 645C6074 620 6089 604 6113 604C6144 604 6168 633 6168 671C6168 695 6153 712 6132 712ZM6198 152C6198 46 6243 -11 6326 -11C6381 -11 6441 15 6486 57C6548 116 6592 230 6592 331C6592 425 6542 482 6459 482C6355 482 6198 382 6198 152ZM6422 444C6483 444 6516 399 6516 315C6516 219 6485 113 6441 60C6423 39 6397 27 6366 27C6308 27 6274 72 6274 151C6274 264 6313 387 6362 427C6375 438 6398 444 6422 444ZM6648 388L6655 368L6687 389C6724 412 6727 414 6734 414C6745 414 6752 404 6752 389C6752 338 6711 145 6670 2L6677 -9C6702 -2 6725 4 6747 8C6766 134 6787 199 6833 268C6887 352 6962 414 7007 414C7018 414 7024 405 7024 390C7024 372 7021 351 7013 319L6961 107C6952 70 6948 47 6948 31C6948 6 6959 -9 6978 -9C7004 -9 7040 12 7138 85L7128 103L7102 86C7073 67 7051 56 7041 56C7034 56 7028 65 7028 76C7028 81 7029 92 7030 96L7096 372C7103 401 7107 429 7107 446C7107 469 7096 482 7076 482C7034 482 6965 444 6906 389C6868 354 6840 320 6788 247L6826 408C6830 426 6832 438 6832 449C6832 470 6824 482 6809 482C6788 482 6749 460 6676 408Z" stroke="rgb(0,0,0)" stroke-opacity="1" stroke-width="8" fill="rgb(0,0,0)" fill-opacity="1"></path></g></g></g><g><g><g transform="matrix(1,0,0,1,2,38.729156494140625)"><path transform="matrix(0.017,0,0,-0.017,0,0)" d="M465 287C436 470 196 506 178 622C171 664 221 679 256 679C291 679 326 668 359 649L368 655C363 667 357 681 349 694C324 699 299 702 274 702C213 702 98 676 111 597C120 539 199 493 246 464L246 458C108 426 38 304 61 160C78 53 133 -16 246 -16C403 -16 489 139 465 287ZM393 269C408 174 385 12 267 12C183 12 148 99 137 167C116 295 141 411 268 448C339 399 380 350 393 269Z" stroke="rgb(0,0,0)" stroke-opacity="1" stroke-width="8" fill="rgb(0,0,0)" fill-opacity="1"></path></g></g><g><g><g><g><g transform="matrix(1,0,0,1,10.9583740234375,41.73332824707031)"><path transform="matrix(0.0119,0,0,-0.0119,0,0)" d="M31 148C26 97 20 62 9 16C47 -2 81 -11 116 -11C165 -11 211 7 262 47C313 87 334 124 334 174C334 228 302 257 228 271L185 279C125 290 106 307 106 348C106 401 151 442 208 442C249 442 287 424 303 397L303 342L326 342C330 377 334 404 345 455C306 474 278 482 245 482C193 482 132 452 84 404C58 377 47 352 47 316C47 260 78 228 144 215L207 203C251 195 267 177 267 138C267 73 221 29 150 29C115 29 84 40 56 64L56 148ZM381 -180C380 -187 380 -193 380 -198C380 -241 417 -276 462 -276C568 -276 678 -152 737 33L878 473L867 482C838 471 815 465 793 463L758 331C746 284 711 211 678 162C643 111 594 67 572 67C560 67 551 90 552 115L568 322C570 353 572 391 572 419C572 464 565 482 548 482C535 482 521 475 473 442L391 386L402 368L452 398C457 401 468 410 477 410C491 410 499 391 499 358C499 357 499 351 498 343L481 100L480 60C480 18 498 -11 523 -11C560 -11 644 74 719 187L670 16C619 -161 569 -234 499 -234C464 -234 437 -207 437 -172C437 -167 438 -159 439 -150L429 -146ZM918 148C913 97 907 62 896 16C934 -2 968 -11 1003 -11C1052 -11 1098 7 1149 47C1200 87 1221 124 1221 174C1221 228 1189 257 1115 271L1072 279C1012 290 993 307 993 348C993 401 1038 442 1095 442C1136 442 1174 424 1190 397L1190 342L1213 342C1217 377 1221 404 1232 455C1193 474 1165 482 1132 482C1080 482 1019 452 971 404C945 377 934 352 934 316C934 260 965 228 1031 215L1094 203C1138 195 1154 177 1154 138C1154 73 1108 29 1037 29C1002 29 971 40 943 64L943 148ZM1400 390L1344 107C1343 99 1331 61 1331 31C1331 6 1342 -9 1361 -9C1396 -9 1431 11 1509 74L1540 99L1530 117L1485 86C1456 66 1436 56 1425 56C1416 56 1411 64 1411 76C1411 102 1425 183 1454 328L1467 390L1574 390L1585 440C1547 436 1513 434 1475 434C1491 528 1502 577 1520 631L1509 646C1489 634 1462 622 1431 610L1406 440C1362 419 1336 408 1318 403L1316 390ZM1935 111L1911 94C1858 56 1810 36 1774 36C1727 36 1698 73 1698 133C1698 158 1701 185 1706 214C1723 218 1832 248 1857 259C1942 296 1981 342 1981 404C1981 451 1947 482 1897 482C1829 496 1719 423 1682 349C1652 299 1622 180 1622 113C1622 35 1666 -11 1738 -11C1795 -11 1851 17 1943 92ZM1720 274C1737 343 1757 386 1786 412C1804 428 1835 440 1859 440C1888 440 1907 420 1907 388C1907 344 1872 297 1820 272C1792 258 1756 247 1711 237ZM2725 103L2699 86C2670 67 2648 56 2638 56C2631 56 2625 65 2625 76C2625 86 2627 95 2632 116L2707 413C2711 430 2714 446 2714 454C2714 471 2704 482 2688 482C2659 482 2621 464 2560 421C2497 376 2462 341 2413 272L2443 409C2447 429 2450 444 2450 451C2450 470 2440 482 2424 482C2394 482 2348 460 2293 418C2249 384 2229 363 2164 275L2197 408C2201 424 2203 439 2203 451C2203 470 2194 482 2180 482C2159 482 2121 461 2047 408L2019 388L2026 368C2063 391 2098 414 2105 414C2116 414 2123 404 2123 389C2123 338 2082 145 2041 2L2044 -9L2112 6L2134 108C2158 219 2185 278 2240 338C2282 384 2327 414 2355 414C2362 414 2366 406 2366 393C2366 358 2344 244 2303 69L2287 2L2292 -9L2361 6L2382 113C2398 194 2432 269 2476 318C2531 379 2581 414 2613 414C2621 414 2626 405 2626 389C2626 365 2623 351 2601 264C2561 105 2545 84 2545 31C2545 6 2556 -9 2575 -9C2601 -9 2637 12 2735 85Z" stroke="rgb(0,0,0)" stroke-opacity="1" stroke-width="8" fill="rgb(0,0,0)" fill-opacity="1"></path></g></g></g></g></g><g><g transform="matrix(1,0,0,1,44.9375,39.39582824707031)"><path transform="matrix(0.017,0,0,-0.017,0,0)" d="M146 266C146 526 243 632 301 700L282 726C225 675 60 542 60 266C60 159 85 58 133 -32C168 -99 200 -138 282 -215L301 -194C255 -137 146 -15 146 266Z" stroke="rgb(0,0,0)" stroke-opacity="1" stroke-width="8" fill="rgb(0,0,0)" fill-opacity="1"></path></g></g><g><g transform="matrix(1,0,0,1,50.5833740234375,38.729156494140625)"><path transform="matrix(0.017,0,0,-0.017,0,0)" d="M31 148C26 97 20 62 9 16C47 -2 81 -11 116 -11C165 -11 211 7 262 47C313 87 334 124 334 174C334 228 302 257 228 271L185 279C125 290 106 307 106 348C106 401 151 442 208 442C249 442 287 424 303 397L303 342L326 342C330 377 334 404 345 455C306 474 278 482 245 482C193 482 132 452 84 404C58 377 47 352 47 316C47 260 78 228 144 215L207 203C251 195 267 177 267 138C267 73 221 29 150 29C115 29 84 40 56 64L56 148Z" stroke="rgb(0,0,0)" stroke-opacity="1" stroke-width="8" fill="rgb(0,0,0)" fill-opacity="1"></path></g></g><g><g transform="matrix(1,0,0,1,57.1875,38.729156494140625)"><path transform="matrix(0.017,0,0,-0.017,0,0)" d="M204 123C177 114 159 108 106 93C99 17 74 -48 16 -144L30 -155L71 -136C152 -31 190 32 218 109Z" stroke="rgb(0,0,0)" stroke-opacity="1" stroke-width="8" fill="rgb(0,0,0)" fill-opacity="1"></path></g></g><g><g transform="matrix(1,0,0,1,64.82293701171875,38.729156494140625)"><path transform="matrix(0.017,0,0,-0.017,0,0)" d="M337 473C272 473 243 426 218 377C219 371 223 368 226 365L232 366C251 394 268 412 305 412C400 412 431 290 442 220C456 136 460 53 458 -29C422 -86 391 -181 376 -249C381 -257 387 -265 392 -273C412 -268 431 -260 450 -251C464 -183 474 -106 476 -36C524 43 578 120 632 194C676 254 750 353 737 438C735 450 733 467 717 467C700 467 669 453 653 446L649 435C655 419 662 401 665 385C681 279 537 108 489 19L483 23C508 393 425 473 337 473Z" stroke="rgb(0,0,0)" stroke-opacity="1" stroke-width="8" fill="rgb(0,0,0)" fill-opacity="1"></path></g></g><g><g transform="matrix(1,0,0,1,78.9375,38.729156494140625)"><path transform="matrix(0.017,0,0,-0.017,0,0)" d="M204 123C177 114 159 108 106 93C99 17 74 -48 16 -144L30 -155L71 -136C152 -31 190 32 218 109Z" stroke="rgb(0,0,0)" stroke-opacity="1" stroke-width="8" fill="rgb(0,0,0)" fill-opacity="1"></path></g></g><g><g transform="matrix(1,0,0,1,86.57293701171875,38.729156494140625)"><path transform="matrix(0.017,0,0,-0.017,0,0)" d="M736 469L730 474C695 453 573 463 522 457C484 452 451 439 421 422C309 361 268 294 290 153C307 48 351 -15 463 -15C623 -15 703 100 678 257C665 343 634 361 561 404L563 407C616 407 675 403 728 411C732 429 735 449 736 469ZM609 267C625 168 616 13 490 13C398 13 372 112 361 182C343 292 360 412 491 412C506 412 521 409 535 407C585 372 600 321 609 267Z" stroke="rgb(0,0,0)" stroke-opacity="1" stroke-width="8" fill="rgb(0,0,0)" fill-opacity="1"></path></g></g><g><g transform="matrix(1,0,0,1,100.19793701171875,39.39582824707031)"><path transform="matrix(0.017,0,0,-0.017,0,0)" d="M51 726L32 700C87 636 187 526 187 266C187 -10 83 -131 32 -194L51 -215C104 -165 273 -23 273 265C273 542 108 675 51 726Z" stroke="rgb(0,0,0)" stroke-opacity="1" stroke-width="8" fill="rgb(0,0,0)" fill-opacity="1"></path></g></g><g><g transform="matrix(1,0,0,1,105.84375,38.729156494140625)"><path transform="matrix(0.017,0,0,-0.017,0,0)" d="" stroke="rgb(0,0,0)" stroke-opacity="1" stroke-width="8" fill="rgb(0,0,0)" fill-opacity="1"></path></g></g><g><g transform="matrix(1,0,0,1,115.1771240234375,38.729156494140625)"><path transform="matrix(0.017,0,0,-0.017,0,0)" d="M604 347L604 406L65 406L65 347ZM604 134L604 193L65 193L65 134Z" stroke="rgb(0,0,0)" stroke-opacity="1" stroke-width="8" fill="rgb(0,0,0)" fill-opacity="1"></path></g></g><g><g transform="matrix(1,0,0,1,131.63543701171875,38.729156494140625)"><path transform="matrix(0.017,0,0,-0.017,0,0)" d="M500 722L488 733C436 707 400 698 328 691L324 670L372 670C396 670 406 663 406 648C406 645 406 640 403 622C392 567 319 182 304 132C291 82 285 52 285 31C285 6 296 -9 315 -9C341 -9 377 12 475 85L465 103L439 86C410 67 388 56 378 56C371 56 365 66 365 76C365 82 366 89 369 104ZM854 111L830 94C777 56 729 36 693 36C646 36 617 73 617 133C617 158 620 185 625 214C642 218 751 248 776 259C861 296 900 342 900 404C900 451 866 482 816 482C748 496 638 423 601 349C571 299 541 180 541 113C541 35 585 -11 657 -11C714 -11 770 17 862 92ZM639 274C656 343 676 386 705 412C723 428 754 440 778 440C807 440 826 420 826 388C826 344 791 297 739 272C711 258 675 247 630 237ZM1039 390L983 107C982 99 970 61 970 31C970 6 981 -9 1000 -9C1035 -9 1070 11 1148 74L1179 99L1169 117L1124 86C1095 66 1075 56 1064 56C1055 56 1050 64 1050 76C1050 102 1064 183 1093 328L1106 390L1213 390L1224 440C1186 436 1152 434 1114 434C1130 528 1141 577 1159 631L1148 646C1128 634 1101 622 1070 610L1045 440C1001 419 975 408 957 403L955 390Z" stroke="rgb(0,0,0)" stroke-opacity="1" stroke-width="8" fill="rgb(0,0,0)" fill-opacity="1"></path></g></g><g><g transform="matrix(1,0,0,1,157.0521240234375,39.39582824707031)"><path transform="matrix(0.017,0,0,-0.017,0,0)" d="M146 266C146 526 243 632 301 700L282 726C225 675 60 542 60 266C60 159 85 58 133 -32C168 -99 200 -138 282 -215L301 -194C255 -137 146 -15 146 266Z" stroke="rgb(0,0,0)" stroke-opacity="1" stroke-width="8" fill="rgb(0,0,0)" fill-opacity="1"></path></g></g><g><g transform="matrix(1,0,0,1,162.69793701171875,38.729156494140625)"><path transform="matrix(0.017,0,0,-0.017,0,0)" d="M125 390L69 107C68 99 56 61 56 31C56 6 67 -9 86 -9C121 -9 156 11 234 74L265 99L255 117L210 86C181 66 161 56 150 56C141 56 136 64 136 76C136 102 150 183 179 328L192 390L299 390L310 440C272 436 238 434 200 434C216 528 227 577 245 631L234 646C214 634 187 622 156 610L131 440C87 419 61 408 43 403L41 390Z" stroke="rgb(0,0,0)" stroke-opacity="1" stroke-width="8" fill="rgb(0,0,0)" fill-opacity="1"></path></g></g><g><g transform="matrix(1,0,0,1,168.34375,38.729156494140625)"><path transform="matrix(0.017,0,0,-0.017,0,0)" d="M204 123C177 114 159 108 106 93C99 17 74 -48 16 -144L30 -155L71 -136C152 -31 190 32 218 109Z" stroke="rgb(0,0,0)" stroke-opacity="1" stroke-width="8" fill="rgb(0,0,0)" fill-opacity="1"></path></g></g><g><g transform="matrix(1,0,0,1,175.97918701171875,38.729156494140625)"><path transform="matrix(0.017,0,0,-0.017,0,0)" d="M280 148C275 97 269 62 258 16C296 -2 330 -11 365 -11C414 -11 460 7 511 47C562 87 583 124 583 174C583 228 551 257 477 271L434 279C374 290 355 307 355 348C355 401 400 442 457 442C498 442 536 424 552 397L552 342L575 342C579 377 583 404 594 455C555 474 527 482 494 482C442 482 381 452 333 404C307 377 296 352 296 316C296 260 327 228 393 215L456 203C500 195 516 177 516 138C516 73 470 29 399 29C364 29 333 40 305 64L305 148ZM868.80334 794.13126C868.80334 821.493 839.92302 841.25307 814.08278 841.25307C784.44268 841.25307 770.76181 812.37177 762.4023 788.05206L678.80044 545.60793C676.52013 539.52776 671.20072 525.08809 671.20072 517.48836C671.20072 510.64842 675.76036 500.76741 683.36008 500.76741C695.52042 500.76741 709.2013 517.48836 715.28147 526.60764L846.00319 734.09128C856.64398 750.81126 868.80334 772.85164 868.80334 794.13126Z" stroke="rgb(0,0,0)" stroke-opacity="1" stroke-width="8" fill="rgb(0,0,0)" fill-opacity="1"></path></g></g><g><g transform="matrix(1,0,0,1,191.38543701171875,39.39582824707031)"><path transform="matrix(0.017,0,0,-0.017,0,0)" d="M51 726L32 700C87 636 187 526 187 266C187 -10 83 -131 32 -194L51 -215C104 -165 273 -23 273 265C273 542 108 675 51 726Z" stroke="rgb(0,0,0)" stroke-opacity="1" stroke-width="8" fill="rgb(0,0,0)" fill-opacity="1"></path></g></g><g><g transform="matrix(1,0,0,1,197.03125,38.729156494140625)"><path transform="matrix(0.017,0,0,-0.017,0,0)" d="" stroke="rgb(0,0,0)" stroke-opacity="1" stroke-width="8" fill="rgb(0,0,0)" fill-opacity="1"></path></g></g><g><g transform="matrix(1,0,0,1,206.3646240234375,38.729156494140625)"><path transform="matrix(0.017,0,0,-0.017,0,0)" d="M604 347L604 406L65 406L65 347ZM604 134L604 193L65 193L65 134Z" stroke="rgb(0,0,0)" stroke-opacity="1" stroke-width="8" fill="rgb(0,0,0)" fill-opacity="1"></path></g></g><g><g transform="matrix(1,0,0,1,222.82293701171875,38.729156494140625)"><path transform="matrix(0.017,0,0,-0.017,0,0)" d="M714 287C685 470 445 506 427 622C420 664 470 679 505 679C540 679 575 668 608 649L617 655C612 667 606 681 598 694C573 699 548 702 523 702C462 702 347 676 360 597C369 539 448 493 495 464L495 458C357 426 287 304 310 160C327 53 382 -16 495 -16C652 -16 738 139 714 287ZM642 269C657 174 634 12 516 12C432 12 397 99 386 167C365 295 390 411 517 448C588 399 629 350 642 269Z" stroke="rgb(0,0,0)" stroke-opacity="1" stroke-width="8" fill="rgb(0,0,0)" fill-opacity="1"></path></g></g><g><g><g><g><g transform="matrix(1,0,0,1,236.01043701171875,41.73332824707031)"><path transform="matrix(0.0119,0,0,-0.0119,0,0)" d="M125 390L69 107C68 99 56 61 56 31C56 6 67 -9 86 -9C121 -9 156 11 234 74L265 99L255 117L210 86C181 66 161 56 150 56C141 56 136 64 136 76C136 102 150 183 179 328L192 390L299 390L310 440C272 436 238 434 200 434C216 528 227 577 245 631L234 646C214 634 187 622 156 610L131 440C87 419 61 408 43 403L41 390ZM700 365C703 403 708 435 716 476C705 481 701 482 696 482C665 482 634 458 598 407C559 351 520 291 504 256L536 408C540 425 542 438 542 450C542 470 534 482 519 482C498 482 460 461 386 408L358 388L365 368L397 389C425 407 436 412 445 412C455 412 462 403 462 390C462 332 419 126 379 -2L389 -9C404 -4 420 -1 443 4L456 6L482 126C500 209 523 262 567 319C601 363 628 384 650 384C665 384 675 379 686 365ZM1048 111L1024 94C971 56 923 36 887 36C840 36 811 73 811 133C811 158 814 185 819 214C836 218 945 248 970 259C1055 296 1094 342 1094 404C1094 451 1060 482 1010 482C942 496 832 423 795 349C765 299 735 180 735 113C735 35 779 -11 851 -11C908 -11 964 17 1056 92ZM833 274C850 343 870 386 899 412C917 428 948 440 972 440C1001 440 1020 420 1020 388C1020 344 985 297 933 272C905 258 869 247 824 237ZM1436 111L1412 94C1359 56 1311 36 1275 36C1228 36 1199 73 1199 133C1199 158 1202 185 1207 214C1224 218 1333 248 1358 259C1443 296 1482 342 1482 404C1482 451 1448 482 1398 482C1330 496 1220 423 1183 349C1153 299 1123 180 1123 113C1123 35 1167 -11 1239 -11C1296 -11 1352 17 1444 92ZM1221 274C1238 343 1258 386 1287 412C1305 428 1336 440 1360 440C1389 440 1408 420 1408 388C1408 344 1373 297 1321 272C1293 258 1257 247 1212 237Z" stroke="rgb(0,0,0)" stroke-opacity="1" stroke-width="8" fill="rgb(0,0,0)" fill-opacity="1"></path></g></g></g></g></g><g><g transform="matrix(1,0,0,1,254.82293701171875,39.39582824707031)"><path transform="matrix(0.017,0,0,-0.017,0,0)" d="M146 266C146 526 243 632 301 700L282 726C225 675 60 542 60 266C60 159 85 58 133 -32C168 -99 200 -138 282 -215L301 -194C255 -137 146 -15 146 266Z" stroke="rgb(0,0,0)" stroke-opacity="1" stroke-width="8" fill="rgb(0,0,0)" fill-opacity="1"></path></g></g><g><g transform="matrix(1,0,0,1,260.46875,38.729156494140625)"><path transform="matrix(0.017,0,0,-0.017,0,0)" d="M487 469L481 474C446 453 324 463 273 457C235 452 202 439 172 422C60 361 19 294 41 153C58 48 102 -15 214 -15C374 -15 454 100 429 257C416 343 385 361 312 404L314 407C367 407 426 403 479 411C483 429 486 449 487 469ZM360 267C376 168 367 13 241 13C149 13 123 112 112 182C94 292 111 412 242 412C257 412 272 409 286 407C336 372 351 321 360 267Z" stroke="rgb(0,0,0)" stroke-opacity="1" stroke-width="8" fill="rgb(0,0,0)" fill-opacity="1"></path></g></g><g><g transform="matrix(1,0,0,1,269.85418701171875,38.729156494140625)"><path transform="matrix(0.017,0,0,-0.017,0,0)" d="M204 123C177 114 159 108 106 93C99 17 74 -48 16 -144L30 -155L71 -136C152 -31 190 32 218 109Z" stroke="rgb(0,0,0)" stroke-opacity="1" stroke-width="8" fill="rgb(0,0,0)" fill-opacity="1"></path></g></g><g><g transform="matrix(1,0,0,1,277.4896240234375,38.729156494140625)"><path transform="matrix(0.017,0,0,-0.017,0,0)" d="M280 148C275 97 269 62 258 16C296 -2 330 -11 365 -11C414 -11 460 7 511 47C562 87 583 124 583 174C583 228 551 257 477 271L434 279C374 290 355 307 355 348C355 401 400 442 457 442C498 442 536 424 552 397L552 342L575 342C579 377 583 404 594 455C555 474 527 482 494 482C442 482 381 452 333 404C307 377 296 352 296 316C296 260 327 228 393 215L456 203C500 195 516 177 516 138C516 73 470 29 399 29C364 29 333 40 305 64L305 148Z" stroke="rgb(0,0,0)" stroke-opacity="1" stroke-width="8" fill="rgb(0,0,0)" fill-opacity="1"></path></g></g><g><g transform="matrix(1,0,0,1,288.32293701171875,39.39582824707031)"><path transform="matrix(0.017,0,0,-0.017,0,0)" d="M51 726L32 700C87 636 187 526 187 266C187 -10 83 -131 32 -194L51 -215C104 -165 273 -23 273 265C273 542 108 675 51 726Z" stroke="rgb(0,0,0)" stroke-opacity="1" stroke-width="8" fill="rgb(0,0,0)" fill-opacity="1"></path></g></g><g><g transform="matrix(1,0,0,1,293.96875,38.729156494140625)"><path transform="matrix(0.017,0,0,-0.017,0,0)" d="M283 388L290 368L322 389C359 412 362 414 369 414C379 414 387 404 387 391C387 384 383 361 379 347L313 107C305 76 300 49 300 30C300 6 311 -9 330 -9C356 -9 392 12 490 85L480 103L454 86C425 67 402 56 393 56C386 56 380 66 380 76C380 86 382 95 387 116L464 420C468 437 470 448 470 456C470 473 461 482 445 482C423 482 386 461 311 408ZM477 712C448 712 419 679 419 645C419 620 434 604 458 604C489 604 513 633 513 671C513 695 498 712 477 712ZM550 388L557 368L589 389C626 412 629 414 636 414C647 414 654 404 654 389C654 338 613 145 572 2L579 -9C604 -2 627 4 649 8C668 134 689 199 735 268C789 352 864 414 909 414C920 414 926 405 926 390C926 372 923 351 915 319L863 107C854 70 850 47 850 31C850 6 861 -9 880 -9C906 -9 942 12 1040 85L1030 103L1004 86C975 67 953 56 943 56C936 56 930 65 930 76C930 81 931 92 932 96L998 372C1005 401 1009 429 1009 446C1009 469 998 482 978 482C936 482 867 444 808 389C770 354 742 320 690 247L728 408C732 426 734 438 734 449C734 470 726 482 711 482C690 482 651 460 578 408ZM1795 287C1766 470 1526 506 1508 622C1501 664 1551 679 1586 679C1621 679 1656 668 1689 649L1698 655C1693 667 1687 681 1679 694C1654 699 1629 702 1604 702C1543 702 1428 676 1441 597C1450 539 1529 493 1576 464L1576 458C1438 426 1368 304 1391 160C1408 53 1463 -16 1576 -16C1733 -16 1819 139 1795 287ZM1723 269C1738 174 1715 12 1597 12C1513 12 1478 99 1467 167C1446 295 1471 411 1598 448C1669 399 1710 350 1723 269Z" stroke="rgb(0,0,0)" stroke-opacity="1" stroke-width="8" fill="rgb(0,0,0)" fill-opacity="1"></path></g></g><g><g><g><g><g transform="matrix(1,0,0,1,325.53125,41.73332824707031)"><path transform="matrix(0.0119,0,0,-0.0119,0,0)" d="M125 390L69 107C68 99 56 61 56 31C56 6 67 -9 86 -9C121 -9 156 11 234 74L265 99L255 117L210 86C181 66 161 56 150 56C141 56 136 64 136 76C136 102 150 183 179 328L192 390L299 390L310 440C272 436 238 434 200 434C216 528 227 577 245 631L234 646C214 634 187 622 156 610L131 440C87 419 61 408 43 403L41 390ZM603 204L574 77C570 60 568 42 568 26C568 4 577 -9 592 -9C615 -9 656 17 738 85L731 106C707 86 678 59 656 59C647 59 641 68 641 82C641 87 641 90 642 93L734 472L724 481L691 463C650 478 633 482 606 482C578 482 558 477 531 464C469 433 436 403 411 354C367 265 336 145 336 67C336 23 351 -11 370 -11C407 -11 487 41 603 204ZM651 414C629 305 610 253 576 201C519 117 458 59 426 59C414 59 408 72 408 99C408 163 436 280 471 360C495 415 518 433 566 433C589 433 607 429 651 414ZM806 148C801 97 795 62 784 16C822 -2 856 -11 891 -11C940 -11 986 7 1037 47C1088 87 1109 124 1109 174C1109 228 1077 257 1003 271L960 279C900 290 881 307 881 348C881 401 926 442 983 442C1024 442 1062 424 1078 397L1078 342L1101 342C1105 377 1109 404 1120 455C1081 474 1053 482 1020 482C968 482 907 452 859 404C833 377 822 352 822 316C822 260 853 228 919 215L982 203C1026 195 1042 177 1042 138C1042 73 996 29 925 29C890 29 859 40 831 64L831 148ZM1403 722L1391 733C1339 707 1303 698 1231 691L1227 670L1275 670C1299 670 1309 663 1309 646C1309 638 1308 629 1307 622L1259 354C1245 279 1229 210 1177 1L1186 -9L1253 8L1276 132C1285 180 1309 225 1343 259C1412 59 1444 -9 1469 -9C1482 -9 1506 4 1550 35L1596 67L1588 86L1545 62C1531 54 1524 52 1516 52C1506 52 1499 58 1490 75C1455 139 1433 193 1394 316L1408 330C1469 391 1515 416 1565 416C1573 416 1584 414 1601 410L1618 473C1600 479 1582 482 1570 482C1504 482 1421 405 1296 230Z" stroke="rgb(0,0,0)" stroke-opacity="1" stroke-width="8" fill="rgb(0,0,0)" fill-opacity="1"></path></g></g></g></g></g><g><g transform="matrix(1,0,0,1,345.94793701171875,39.39582824707031)"><path transform="matrix(0.017,0,0,-0.017,0,0)" d="M146 266C146 526 243 632 301 700L282 726C225 675 60 542 60 266C60 159 85 58 133 -32C168 -99 200 -138 282 -215L301 -194C255 -137 146 -15 146 266Z" stroke="rgb(0,0,0)" stroke-opacity="1" stroke-width="8" fill="rgb(0,0,0)" fill-opacity="1"></path></g></g><g><g transform="matrix(1,0,0,1,351.59375,38.729156494140625)"><path transform="matrix(0.017,0,0,-0.017,0,0)" d="M125 390L69 107C68 99 56 61 56 31C56 6 67 -9 86 -9C121 -9 156 11 234 74L265 99L255 117L210 86C181 66 161 56 150 56C141 56 136 64 136 76C136 102 150 183 179 328L192 390L299 390L310 440C272 436 238 434 200 434C216 528 227 577 245 631L234 646C214 634 187 622 156 610L131 440C87 419 61 408 43 403L41 390Z" stroke="rgb(0,0,0)" stroke-opacity="1" stroke-width="8" fill="rgb(0,0,0)" fill-opacity="1"></path></g></g><g><g transform="matrix(1,0,0,1,357.2396240234375,38.729156494140625)"><path transform="matrix(0.017,0,0,-0.017,0,0)" d="M204 123C177 114 159 108 106 93C99 17 74 -48 16 -144L30 -155L71 -136C152 -31 190 32 218 109Z" stroke="rgb(0,0,0)" stroke-opacity="1" stroke-width="8" fill="rgb(0,0,0)" fill-opacity="1"></path></g></g><g><g transform="matrix(1,0,0,1,364.875,38.729156494140625)"><path transform="matrix(0.017,0,0,-0.017,0,0)" d="M280 148C275 97 269 62 258 16C296 -2 330 -11 365 -11C414 -11 460 7 511 47C562 87 583 124 583 174C583 228 551 257 477 271L434 279C374 290 355 307 355 348C355 401 400 442 457 442C498 442 536 424 552 397L552 342L575 342C579 377 583 404 594 455C555 474 527 482 494 482C442 482 381 452 333 404C307 377 296 352 296 316C296 260 327 228 393 215L456 203C500 195 516 177 516 138C516 73 470 29 399 29C364 29 333 40 305 64L305 148ZM868.80334 794.13126C868.80334 821.493 839.92302 841.25307 814.08278 841.25307C784.44268 841.25307 770.76181 812.37177 762.4023 788.05206L678.80044 545.60793C676.52013 539.52776 671.20072 525.08809 671.20072 517.48836C671.20072 510.64842 675.76036 500.76741 683.36008 500.76741C695.52042 500.76741 709.2013 517.48836 715.28147 526.60764L846.00319 734.09128C856.64398 750.81126 868.80334 772.85164 868.80334 794.13126Z" stroke="rgb(0,0,0)" stroke-opacity="1" stroke-width="8" fill="rgb(0,0,0)" fill-opacity="1"></path></g></g><g><g transform="matrix(1,0,0,1,380.28125,38.729156494140625)"><path transform="matrix(0.017,0,0,-0.017,0,0)" d="M204 123C177 114 159 108 106 93C99 17 74 -48 16 -144L30 -155L71 -136C152 -31 190 32 218 109Z" stroke="rgb(0,0,0)" stroke-opacity="1" stroke-width="8" fill="rgb(0,0,0)" fill-opacity="1"></path></g></g><g><g transform="matrix(1,0,0,1,387.91668701171875,38.729156494140625)"><path transform="matrix(0.017,0,0,-0.017,0,0)" d="M337 473C272 473 243 426 218 377C219 371 223 368 226 365L232 366C251 394 268 412 305 412C400 412 431 290 442 220C456 136 460 53 458 -29C422 -86 391 -181 376 -249C381 -257 387 -265 392 -273C412 -268 431 -260 450 -251C464 -183 474 -106 476 -36C524 43 578 120 632 194C676 254 750 353 737 438C735 450 733 467 717 467C700 467 669 453 653 446L649 435C655 419 662 401 665 385C681 279 537 108 489 19L483 23C508 393 425 473 337 473Z" stroke="rgb(0,0,0)" stroke-opacity="1" stroke-width="8" fill="rgb(0,0,0)" fill-opacity="1"></path></g></g><g><g transform="matrix(1,0,0,1,402.03125,38.729156494140625)"><path transform="matrix(0.017,0,0,-0.017,0,0)" d="M204 123C177 114 159 108 106 93C99 17 74 -48 16 -144L30 -155L71 -136C152 -31 190 32 218 109Z" stroke="rgb(0,0,0)" stroke-opacity="1" stroke-width="8" fill="rgb(0,0,0)" fill-opacity="1"></path></g></g><g><g transform="matrix(1,0,0,1,409.66668701171875,38.729156494140625)"><path transform="matrix(0.017,0,0,-0.017,0,0)" d="M736 469L730 474C695 453 573 463 522 457C484 452 451 439 421 422C309 361 268 294 290 153C307 48 351 -15 463 -15C623 -15 703 100 678 257C665 343 634 361 561 404L563 407C616 407 675 403 728 411C732 429 735 449 736 469ZM609 267C625 168 616 13 490 13C398 13 372 112 361 182C343 292 360 412 491 412C506 412 521 409 535 407C585 372 600 321 609 267Z" stroke="rgb(0,0,0)" stroke-opacity="1" stroke-width="8" fill="rgb(0,0,0)" fill-opacity="1"></path></g></g><g><g transform="matrix(1,0,0,1,423.29168701171875,39.39582824707031)"><path transform="matrix(0.017,0,0,-0.017,0,0)" d="M51 726L32 700C87 636 187 526 187 266C187 -10 83 -131 32 -194L51 -215C104 -165 273 -23 273 265C273 542 108 675 51 726Z" stroke="rgb(0,0,0)" stroke-opacity="1" stroke-width="8" fill="rgb(0,0,0)" fill-opacity="1"></path></g></g></g><g><g><g transform="matrix(1,0,0,1,86.3646240234375,61.104156494140625)"><path transform="matrix(0.017,0,0,-0.017,0,0)" d="M465 287C436 470 196 506 178 622C171 664 221 679 256 679C291 679 326 668 359 649L368 655C363 667 357 681 349 694C324 699 299 702 274 702C213 702 98 676 111 597C120 539 199 493 246 464L246 458C108 426 38 304 61 160C78 53 133 -16 246 -16C403 -16 489 139 465 287ZM393 269C408 174 385 12 267 12C183 12 148 99 137 167C116 295 141 411 268 448C339 399 380 350 393 269Z" stroke="rgb(0,0,0)" stroke-opacity="1" stroke-width="8" fill="rgb(0,0,0)" fill-opacity="1"></path></g></g><g><g><g><g><g transform="matrix(1,0,0,1,95.32293701171875,64.10832824707032)"><path transform="matrix(0.0119,0,0,-0.0119,0,0)" d="M31 148C26 97 20 62 9 16C47 -2 81 -11 116 -11C165 -11 211 7 262 47C313 87 334 124 334 174C334 228 302 257 228 271L185 279C125 290 106 307 106 348C106 401 151 442 208 442C249 442 287 424 303 397L303 342L326 342C330 377 334 404 345 455C306 474 278 482 245 482C193 482 132 452 84 404C58 377 47 352 47 316C47 260 78 228 144 215L207 203C251 195 267 177 267 138C267 73 221 29 150 29C115 29 84 40 56 64L56 148ZM381 -180C380 -187 380 -193 380 -198C380 -241 417 -276 462 -276C568 -276 678 -152 737 33L878 473L867 482C838 471 815 465 793 463L758 331C746 284 711 211 678 162C643 111 594 67 572 67C560 67 551 90 552 115L568 322C570 353 572 391 572 419C572 464 565 482 548 482C535 482 521 475 473 442L391 386L402 368L452 398C457 401 468 410 477 410C491 410 499 391 499 358C499 357 499 351 498 343L481 100L480 60C480 18 498 -11 523 -11C560 -11 644 74 719 187L670 16C619 -161 569 -234 499 -234C464 -234 437 -207 437 -172C437 -167 438 -159 439 -150L429 -146ZM918 148C913 97 907 62 896 16C934 -2 968 -11 1003 -11C1052 -11 1098 7 1149 47C1200 87 1221 124 1221 174C1221 228 1189 257 1115 271L1072 279C1012 290 993 307 993 348C993 401 1038 442 1095 442C1136 442 1174 424 1190 397L1190 342L1213 342C1217 377 1221 404 1232 455C1193 474 1165 482 1132 482C1080 482 1019 452 971 404C945 377 934 352 934 316C934 260 965 228 1031 215L1094 203C1138 195 1154 177 1154 138C1154 73 1108 29 1037 29C1002 29 971 40 943 64L943 148ZM1400 390L1344 107C1343 99 1331 61 1331 31C1331 6 1342 -9 1361 -9C1396 -9 1431 11 1509 74L1540 99L1530 117L1485 86C1456 66 1436 56 1425 56C1416 56 1411 64 1411 76C1411 102 1425 183 1454 328L1467 390L1574 390L1585 440C1547 436 1513 434 1475 434C1491 528 1502 577 1520 631L1509 646C1489 634 1462 622 1431 610L1406 440C1362 419 1336 408 1318 403L1316 390ZM1935 111L1911 94C1858 56 1810 36 1774 36C1727 36 1698 73 1698 133C1698 158 1701 185 1706 214C1723 218 1832 248 1857 259C1942 296 1981 342 1981 404C1981 451 1947 482 1897 482C1829 496 1719 423 1682 349C1652 299 1622 180 1622 113C1622 35 1666 -11 1738 -11C1795 -11 1851 17 1943 92ZM1720 274C1737 343 1757 386 1786 412C1804 428 1835 440 1859 440C1888 440 1907 420 1907 388C1907 344 1872 297 1820 272C1792 258 1756 247 1711 237ZM2725 103L2699 86C2670 67 2648 56 2638 56C2631 56 2625 65 2625 76C2625 86 2627 95 2632 116L2707 413C2711 430 2714 446 2714 454C2714 471 2704 482 2688 482C2659 482 2621 464 2560 421C2497 376 2462 341 2413 272L2443 409C2447 429 2450 444 2450 451C2450 470 2440 482 2424 482C2394 482 2348 460 2293 418C2249 384 2229 363 2164 275L2197 408C2201 424 2203 439 2203 451C2203 470 2194 482 2180 482C2159 482 2121 461 2047 408L2019 388L2026 368C2063 391 2098 414 2105 414C2116 414 2123 404 2123 389C2123 338 2082 145 2041 2L2044 -9L2112 6L2134 108C2158 219 2185 278 2240 338C2282 384 2327 414 2355 414C2362 414 2366 406 2366 393C2366 358 2344 244 2303 69L2287 2L2292 -9L2361 6L2382 113C2398 194 2432 269 2476 318C2531 379 2581 414 2613 414C2621 414 2626 405 2626 389C2626 365 2623 351 2601 264C2561 105 2545 84 2545 31C2545 6 2556 -9 2575 -9C2601 -9 2637 12 2735 85Z" stroke="rgb(0,0,0)" stroke-opacity="1" stroke-width="8" fill="rgb(0,0,0)" fill-opacity="1"></path></g></g></g></g></g><g><g transform="matrix(1,0,0,1,132.69793701171875,61.104156494140625)"><path transform="matrix(0.017,0,0,-0.017,0,0)" d="M123 111C93 111 66 83 66 53C66 23 93 -5 122 -5C154 -5 182 22 182 53C182 83 154 111 123 111ZM123 456C93 456 66 428 66 398C66 368 93 340 122 340C154 340 182 367 182 397C182 428 154 456 123 456Z" stroke="rgb(0,0,0)" stroke-opacity="1" stroke-width="8" fill="rgb(0,0,0)" fill-opacity="1"></path></g></g><g><g transform="matrix(1,0,0,1,140.3333740234375,61.104156494140625)"><path transform="matrix(0.017,0,0,-0.017,0,0)" d="M357 471C357 386 395 339 479 319L574 296C628 283 655 248 655 191C655 96 584 30 481 30C427 30 389 42 345 73L345 172L315 172C309 117 302 72 291 20C340 -5 393 -18 446 -18C601 -18 734 99 734 234C734 313 691 355 590 377L525 391C459 405 429 442 429 508C429 595 496 658 588 658C637 658 670 645 700 613L700 537L730 537C734 591 741 629 755 672C710 696 670 706 623 706C499 706 357 614 357 471Z" stroke="rgb(0,0,0)" stroke-opacity="1" stroke-width="8" fill="rgb(0,0,0)" fill-opacity="1"></path></g></g><g><g transform="matrix(1,0,0,1,161.63543701171875,61.104156494140625)"><path transform="matrix(0.017,0,0,-0.017,0,0)" d="M611 37L376 271L611 505L568 547L335 313L101 547L59 505L293 271L59 37L101 -5L335 229L568 -5Z" stroke="rgb(0,0,0)" stroke-opacity="1" stroke-width="8" fill="rgb(0,0,0)" fill-opacity="1"></path></g></g><g><g transform="matrix(1,0,0,1,176.3958740234375,61.104156494140625)"><path transform="matrix(0.017,0,0,-0.017,0,0)" d="M785 689C746 691 701 692 656 692C599 692 507 689 440 689C383 689 326 691 271 692L271 662L319 659C362 657 370 651 370 569L370 120C370 40 362 32 319 30L271 27L271 -3C323 -1 370 0 419 0C465 0 512 -1 564 -3L564 27L516 30C473 32 465 38 465 120L465 642C493 649 522 650 549 650C593 650 672 649 725 629C733 626 734 615 734 602L734 537L769 537C769 588 774 645 785 689Z" stroke="rgb(0,0,0)" stroke-opacity="1" stroke-width="8" fill="rgb(0,0,0)" fill-opacity="1"></path></g></g><g><g transform="matrix(1,0,0,1,197.69793701171875,61.104156494140625)"><path transform="matrix(0.017,0,0,-0.017,0,0)" d="M611 37L376 271L611 505L568 547L335 313L101 547L59 505L293 271L59 37L101 -5L335 229L568 -5Z" stroke="rgb(0,0,0)" stroke-opacity="1" stroke-width="8" fill="rgb(0,0,0)" fill-opacity="1"></path></g></g><g><g transform="matrix(1,0,0,1,212.4583740234375,61.104156494140625)"><path transform="matrix(0.017,0,0,-0.017,0,0)" d="M892 193L889 196L871 196L867 193C848 111 846 76 751 76L393 76C457 184 525 291 596 393C537 474 484 560 431 644L684 644C782 644 785 629 798 540L804 536L822 536L825 540C828 587 830 636 837 683L833 689C660 681 485 682 311 681L311 665C387 562 456 451 521 340C486 275 344 69 294 15L294 -4C389 -2 483 0 577 0C678 0 780 -2 882 -4C883 62 886 127 892 193Z" stroke="rgb(0,0,0)" stroke-opacity="1" stroke-width="8" fill="rgb(0,0,0)" fill-opacity="1"></path></g></g><g><g><g transform="matrix(1,0,0,1,235.9583740234375,61.104156494140625)"><path transform="matrix(0.017,0,0,-0.017,0,0)" d="M949 272L743 486L711 452L836 300L65 300L65 241L836 241L711 89L743 55Z" stroke="rgb(0,0,0)" stroke-opacity="1" stroke-width="8" fill="rgb(0,0,0)" fill-opacity="1"></path></g></g></g><g><g transform="matrix(1,0,0,1,256.5833740234375,61.104156494140625)"><path transform="matrix(0.017,0,0,-0.017,0,0)" d="M357 471C357 386 395 339 479 319L574 296C628 283 655 248 655 191C655 96 584 30 481 30C427 30 389 42 345 73L345 172L315 172C309 117 302 72 291 20C340 -5 393 -18 446 -18C601 -18 734 99 734 234C734 313 691 355 590 377L525 391C459 405 429 442 429 508C429 595 496 658 588 658C637 658 670 645 700 613L700 537L730 537C734 591 741 629 755 672C710 696 670 706 623 706C499 706 357 614 357 471Z" stroke="rgb(0,0,0)" stroke-opacity="1" stroke-width="8" fill="rgb(0,0,0)" fill-opacity="1"></path></g></g><g><g transform="matrix(1,0,0,1,277.88543701171875,61.104156494140625)"><path transform="matrix(0.017,0,0,-0.017,0,0)" d="M611 37L376 271L611 505L568 547L335 313L101 547L59 505L293 271L59 37L101 -5L335 229L568 -5Z" stroke="rgb(0,0,0)" stroke-opacity="1" stroke-width="8" fill="rgb(0,0,0)" fill-opacity="1"></path></g></g><g><g transform="matrix(1,0,0,1,292.6458740234375,61.104156494140625)"><path transform="matrix(0.017,0,0,-0.017,0,0)" d="M785 689C746 691 701 692 656 692C599 692 507 689 440 689C383 689 326 691 271 692L271 662L319 659C362 657 370 651 370 569L370 120C370 40 362 32 319 30L271 27L271 -3C323 -1 370 0 419 0C465 0 512 -1 564 -3L564 27L516 30C473 32 465 38 465 120L465 642C493 649 522 650 549 650C593 650 672 649 725 629C733 626 734 615 734 602L734 537L769 537C769 588 774 645 785 689Z" stroke="rgb(0,0,0)" stroke-opacity="1" stroke-width="8" fill="rgb(0,0,0)" fill-opacity="1"></path></g></g><g><g transform="matrix(1,0,0,1,313.94793701171875,61.104156494140625)"><path transform="matrix(0.017,0,0,-0.017,0,0)" d="M611 37L376 271L611 505L568 547L335 313L101 547L59 505L293 271L59 37L101 -5L335 229L568 -5Z" stroke="rgb(0,0,0)" stroke-opacity="1" stroke-width="8" fill="rgb(0,0,0)" fill-opacity="1"></path></g></g><g><g transform="matrix(1,0,0,1,328.7083740234375,61.104156494140625)"><path transform="matrix(0.017,0,0,-0.017,0,0)" d="M892 193L889 196L871 196L867 193C848 111 846 76 751 76L393 76C457 184 525 291 596 393C537 474 484 560 431 644L684 644C782 644 785 629 798 540L804 536L822 536L825 540C828 587 830 636 837 683L833 689C660 681 485 682 311 681L311 665C387 562 456 451 521 340C486 275 344 69 294 15L294 -4C389 -2 483 0 577 0C678 0 780 -2 882 -4C883 62 886 127 892 193Z" stroke="rgb(0,0,0)" stroke-opacity="1" stroke-width="8" fill="rgb(0,0,0)" fill-opacity="1"></path></g></g></g><g></g></g></svg>